{"accessors" : [{"bufferView" : 0, "byteOffset" : 0, "componentType" : 5123, "count" : 8670, "type" : "SCALAR", "max" : [7222], "min" : [0]}, {"bufferView" : 1, "byteOffset" : 0, "componentType" : 5126, "count" : 7223, "type" : "VEC3", "max" : [0.8188030123710632, 2.1176199913024902, 1.332321047782898], "min" : [-0.5486000180244446, -0.3979380130767822, -0.04094000160694122], "name" : "POSITION"}, {"bufferView" : 1, "byteOffset" : 12, "componentType" : 5126, "count" : 7223, "type" : "VEC2", "max" : [1, -0], "min" : [0, -1], "name" : "TEXCOORD_0"}, {"bufferView" : 1, "byteOffset" : 20, "componentType" : 5126, "count" : 7223, "type" : "VEC3", "max" : [1.0000032186508179, 0.9990702867507935, 0.9957342743873596], "min" : [-0.9829862117767334, -0.9993953108787537, -0.9957342743873596], "name" : "NORMAL"}], "asset" : {"generator" : "Aspose.3D 23.7.0", "version" : "2.0"}, "buffers" : [{"uri" : "data:application/octet-stream;base64,", "byteLength" : 294788}], "bufferViews" : [{"buffer" : 0, "byteOffset" : 0, "byteLength" : 17340, "target" : 34963}, {"buffer" : 0, "byteOffset" : 17344, "byteLength" : 277440, "byteStride" : 32, "target" : 34962}], "meshes" : [{"primitives" : [{"attributes" : {"POSITION" : 1, "TEXCOORD_0" : 2, "NORMAL" : 3}, "indices" : 0, "mode" : 4}], "name" : ""}], "nodes" : [{"mesh" : 0, "name" : "Line001_Mesh"}], "scene" : 0, "scenes" : [{"nodes" : [0]}]}